<?xml version="1.0" encoding="UTF-8"?>
<svg id="Capa_1" data-name="Capa 1" xmlns="http://www.w3.org/2000/svg" viewBox="0 0 468.26 500">
  <path d="M467.38,96.45c-1.77-9.51-5.62-16.24-11.76-20.56-5.31-3.74-12.24-5.77-22.48-6.59-27.38-2.19-55.18,2.57-84.99,14.56-27.07,10.89-52.26,26.17-75.75,40.89-.6.38-7.01,4.74-10.29,7.29-.85-11.71-4.93-23.18-12.18-34.19-2.15-3.27-4.77-6.58-7.53-10.08-5.12-6.47-10.41-13.17-12.71-19.7-2.67-7.57-2.66-15.65-2.64-23.46.02-12.03.05-24.47-9.52-35.48C212.53,3.4,206.66.33,200.08.03c-13.91-.65-27.92,10.93-38.57,21.09-16.74,15.97-30.17,37.5-39.92,63.98-8.83,23.97-14.43,51.31-16.65,81.26-2.04,27.45-1.07,56.61,2.8,84.33,3.77,27.03,10.23,52.37,18.68,73.26.27.66.87,1.96,1.71,3.75.61,1.3,1.55,3.31,2.46,5.34-6.22-4.92-14.16-10.33-20.64-8.73-3.14.77-5.52,3.03-7.08,6.71-1.81,4.26-1.58,9.7.63,14.91,2.15,5.08,5.77,9.11,9.94,11.07,1.29.6,3.03,1.03,4.71,1.44,1.37.34,3.07.75,3.8,1.14.28.35.79,1.37,1.1,2,.5,1.01.97,1.97,1.54,2.68,3.34,4.13,7.35,6.41,11.23,8.61,2.82,1.6,5.48,3.11,7.71,5.24,22.08,21.09,29.79,58.49,32.36,86.15.15,1.56.09,3.21.02,4.97-.06,1.6-.12,3.26-.01,4.89.08,1.23,1.1,2.18,2.33,2.18h2.2c1.17,0,2.15-.87,2.31-2.02.06-.46.12-.91.19-1.36.38-2.72.73-5.29.6-8.29-.43-9.45-2.89-23.87-4.71-33.9-2.23-12.34-6.03-24.27-10.22-35.9,26.23,33.89,59.66,57.78,84.48,72.43,8.23,4.86,21.65,12.05,38.81,18.68,16.28,6.3,31.9,10.54,46.44,12.62,6.74.96,13.18,1.44,19.3,1.44,9.51,0,18.24-1.16,26.09-3.48,15.02-4.43,26.86-13.1,35.17-25.77,11.54-17.59,14.54-38.17,8.66-59.51-5.14-18.68-16.83-36.89-32.89-51.27-.43-.38-1.18-.93-2.59-1.95-1.42-1.03-5.17-3.74-6.96-5.44,12.78-8.6,24.07-20.12,31.94-32.64,9.27-14.74,13.76-30.63,12.99-45.95-.35-6.96-1.71-14.12-3.02-21.04-1.22-6.44-2.49-13.1-2.89-19.45-1.12-17.73,3.26-42.51,10.19-57.65,3.59-7.83,8.84-15.43,13.93-22.78,11.51-16.64,23.4-33.86,19.16-56.64ZM284.89,474.69c-48.34-22.51-90.77-58.23-120.26-101.1l15.96,6.85c.06.03.12.05.19.07,15.1,5,30.99,8.43,47.2,10.19,15.9,1.72,32.15,1.84,48.32.35,16.05-1.48,32.02-4.54,47.47-9.09,15.55-4.59,30.57-10.7,44.66-18.15.92-.49,1.96-1.19,3.05-1.94,1.39-.94,2.97-2.01,4.36-2.66,1.13-.52,1.74-.59,2.03-.56,2.19,2.04,4.61,3.74,6.96,5.39,1.51,1.06,2.93,2.06,4.3,3.14,27.46,21.74,39.75,55.62,30.58,84.31-7.8,24.39-29.74,39.26-60.19,40.8-1.71.09-3.42.13-5.13.13-25.82,0-51.78-9.47-69.48-17.71ZM154.5,48.96c7.75-10.96,28.64-32.76,39.52-35.5,1.53-.39,3-.57,4.41-.57,8.83,0,15,7.12,17.23,14.69,1.86,6.31,2.16,12.54,2.47,19.14.37,7.79.75,15.85,3.91,24.03,2.9,7.51,8.45,14.56,13.82,21.37,3.92,4.98,7.63,9.69,10.35,14.51,5.92,10.5,8.74,24.36,7.27,35.56-2.32,2.14-4.73,4.27-7.07,6.34-3.82,3.38-7.76,6.87-11.45,10.5-23.87,23.56-44.77,50.72-60.45,78.55-17.9,31.78-28.57,63.31-31.72,93.73-.24,2.36-.3,4.9-.35,7.36-.02,1.07-.05,2.16-.09,3.24-1.41-3.25-2.97-6.45-4.5-9.57-2.04-4.18-4.15-8.5-5.86-12.87-29.18-74.49-31.21-194.62,22.49-270.52ZM171.46,356.08c4.22-2.9,8.59-5.89,10.77-7.03,39.71-20.79,92.24-25.99,140.53-13.92,18.15,4.54,33.87,10.76,46.8,18.52-22.85,14.19-51.98,24.14-82.47,28.1-45.39,5.9-89.11-.48-126.63-18.47,2.34-1.28,5.98-3.75,11.01-7.2ZM151.16,356.7c-.12-.22-.23-.44-.34-.67.73-.36,1.46-.75,2.19-1.17-.63.61-1.25,1.22-1.84,1.83ZM149.69,340.94c-.06-1.99-.11-3.87-.04-4.79,1.09-14.25,5.32-32.83,11.61-50.97,15.9-45.88,48.28-91.47,91.45-128.89-1.5,15.69-5.34,32.25-11.93,51.62-13.71,40.28-35.89,79.75-62.44,111.16-7.91,9.35-16.58,18.12-24.42,24.69-.39.33-.98.84-1.66,1.42-.61.53-1.55,1.34-2.51,2.16.05-1.61.01-3.69-.06-6.39ZM395.43,334.24c-7.13,7-14.54,12.76-16.89,13.65-24.22-15.1-52.81-24.69-84.98-28.5-6.82-.81-14.1-1.2-21.66-1.2-23.7,0-50.22,3.89-74.47,11.13-8.55,2.55-17.45,6.53-25.75,11.49-.67.4-1.34.81-2,1.22,24.34-22.09,45.94-52.81,62.52-88.92,7.79-16.98,14.34-34.84,19.46-53.06,4.93-17.55,8.42-35.05,10.39-52.05,42.65-33.69,89.5-55.01,135.53-61.67,14.72-2.13,35.42-3.98,45.31-2.17,3.3.6,8.27,4.97,9.66,8.5,7.58,19.19-3.06,36.85-13.34,53.94-3.61,6-7.34,12.2-10.12,18.27-1.87,4.09-8.19,18.24-10.84,28.7-3.62,14.26-4.71,33.4-2.65,46.55.62,3.95,1.49,8.03,2.33,11.97,1.18,5.5,2.39,11.2,2.9,16.49,2.33,24.35-6.46,47.06-25.4,65.67Z" style="fill: #4a5d4e;"/>
  <path d="M102.51,327.18c.54-2.98-1.2-4.59-2.35-5.65-.17-.15-.34-.31-.5-.47-2.64-2.6-6.95-5.5-10.41-7.83-.78-.52-1.52-1.02-2.2-1.49-14.28-9.8-41.71-26.81-64.91-30.6-.11-.02-11.45-1.83-14.4-1.64-4,.26-7.54,3.36-7.74,6.77-.12,2.05,1.06,4.49,4.7,5.15,2.52.46,4.1-.66,5.14-1.4.58-.41.91-.63,1.27-.67,9.5-.95,27.96,4.4,37.44,8.31,12.21,5.04,22.92,12.68,33.28,20.06,4.61,3.28,9.37,6.68,14.25,9.84.14.09.28.19.41.29.7.5,1.81,1.29,3.34,1.29.25,0,.52-.02.8-.07.96-.17,1.71-.92,1.89-1.88Z" style="fill: #4a5d4e;"/>
  <path d="M50.04,249.4c1.56,1.32,3.56.98,5.02.73.48-.08,1.2-.2,1.45-.16.27.05,2.87.68,11.71,8.72,5.38,4.89,10.15,9.86,11.82,11.82,7.31,8.6,15.12,21.28,20.39,33.1.05.15.19.6.32,1,2.57,8.17,4.13,10.95,6.39,11.44.22.05.43.07.64.07.85,0,1.65-.37,2.27-1.06,1.06-1.18.93-2.71-.67-7.81-.88-2.81-1.9-5.58-2.22-6.38-3.92-9.68-11.21-21.66-20.02-32.85-9.31-11.83-19.13-21.33-27.63-26.73-2.25-1.43-5.66-2.24-8.23-.85-1.75.95-2.73,2.72-2.75,4.97-.01,1.77.5,3.11,1.51,3.98Z" style="fill: #4a5d4e;"/>
</svg>